<mxfile host="app.diagrams.net" modified="2021-02-03T05:31:57.105Z" agent="5.0 (X11)" etag="wWDgDSxKG4oliN5cfQR9" version="14.2.9" type="github">
  <diagram id="Ad-x17au8eywYAIB-yYd" name="Page-1">
    <mxGraphModel dx="1350" dy="804" grid="1" gridSize="10" guides="1" tooltips="1" connect="1" arrows="1" fold="1" page="1" pageScale="1" pageWidth="850" pageHeight="1100" math="0" shadow="0">
      <root>
        <mxCell id="0" />
        <mxCell id="1" parent="0" />
        <mxCell id="E1Pz37GCyAGTsrBwU5gB-1" value="NVM" style="ellipse;whiteSpace=wrap;html=1;" vertex="1" parent="1">
          <mxGeometry x="320" y="110" width="120" height="80" as="geometry" />
        </mxCell>
        <mxCell id="E1Pz37GCyAGTsrBwU5gB-2" value="New OS abstractions" style="ellipse;whiteSpace=wrap;html=1;" vertex="1" parent="1">
          <mxGeometry x="120" y="270" width="120" height="80" as="geometry" />
        </mxCell>
        <mxCell id="E1Pz37GCyAGTsrBwU5gB-3" value="Memory Management" style="ellipse;whiteSpace=wrap;html=1;" vertex="1" parent="1">
          <mxGeometry x="560" y="270" width="120" height="80" as="geometry" />
        </mxCell>
        <mxCell id="E1Pz37GCyAGTsrBwU5gB-4" value="VA to PA translation" style="ellipse;whiteSpace=wrap;html=1;" vertex="1" parent="1">
          <mxGeometry x="425" y="390" width="120" height="80" as="geometry" />
        </mxCell>
        <mxCell id="E1Pz37GCyAGTsrBwU5gB-5" value="Page Migration" style="ellipse;whiteSpace=wrap;html=1;" vertex="1" parent="1">
          <mxGeometry x="680" y="390" width="120" height="80" as="geometry" />
        </mxCell>
        <mxCell id="E1Pz37GCyAGTsrBwU5gB-6" value="TLB Coverage" style="ellipse;whiteSpace=wrap;html=1;" vertex="1" parent="1">
          <mxGeometry x="320" y="520" width="120" height="80" as="geometry" />
        </mxCell>
        <mxCell id="E1Pz37GCyAGTsrBwU5gB-7" value="Better translation" style="ellipse;whiteSpace=wrap;html=1;" vertex="1" parent="1">
          <mxGeometry x="530" y="520" width="120" height="80" as="geometry" />
        </mxCell>
        <mxCell id="E1Pz37GCyAGTsrBwU5gB-8" value="TLB Coalescing" style="ellipse;whiteSpace=wrap;html=1;" vertex="1" parent="1">
          <mxGeometry x="210" y="620" width="120" height="80" as="geometry" />
        </mxCell>
        <mxCell id="E1Pz37GCyAGTsrBwU5gB-9" value="Super-pages" style="ellipse;whiteSpace=wrap;html=1;" vertex="1" parent="1">
          <mxGeometry x="410" y="620" width="120" height="80" as="geometry" />
        </mxCell>
      </root>
    </mxGraphModel>
  </diagram>
</mxfile>
